<?xml version="1.0" encoding="UTF-8" standalone="no"?>
<!-- Created with Inkscape (http://www.inkscape.org/) -->

<svg
   xmlns:dc="http://purl.org/dc/elements/1.1/"
   xmlns:cc="http://creativecommons.org/ns#"
   xmlns:rdf="http://www.w3.org/1999/02/22-rdf-syntax-ns#"
   xmlns:svg="http://www.w3.org/2000/svg"
   xmlns="http://www.w3.org/2000/svg"
   xmlns:sodipodi="http://sodipodi.sourceforge.net/DTD/sodipodi-0.dtd"
   xmlns:inkscape="http://www.inkscape.org/namespaces/inkscape"
   width="516.09003"
   height="511.35999"
   id="svg2"
   version="1.1"
   inkscape:version="0.48.5 r10040"
   sodipodi:docname="Nuevo documento 1">
  <defs
     id="defs4" />
  <sodipodi:namedview
     id="base"
     pagecolor="#ffffff"
     bordercolor="#666666"
     borderopacity="1.0"
     inkscape:pageopacity="0.0"
     inkscape:pageshadow="2"
     inkscape:zoom="0.98994949"
     inkscape:cx="115.46445"
     inkscape:cy="306.85074"
     inkscape:document-units="px"
     inkscape:current-layer="layer1"
     showgrid="false"
     inkscape:window-width="1366"
     inkscape:window-height="702"
     inkscape:window-x="0"
     inkscape:window-y="27"
     inkscape:window-maximized="1" />
  <metadata
     id="metadata7">
    <rdf:RDF>
      <cc:Work
         rdf:about="">
        <dc:format>image/svg+xml</dc:format>
        <dc:type
           rdf:resource="http://purl.org/dc/dcmitype/StillImage" />
        <dc:title></dc:title>
      </cc:Work>
    </rdf:RDF>
  </metadata>
  <g
     inkscape:label="Capa 1"
     inkscape:groupmode="layer"
     id="layer1"
     transform="translate(0,-540.99165)">
    <g
       id="g2996"
       transform="translate(-1.4872757e-7,545.48237)">
      <path
         style="fill:#cecece"
         d="m 45.90546,440.42349 c -5.905893,-2.17512 -12.436312,-7.15529 -15.807258,-12.0548 -6.611782,-9.60989 -6.202095,2.74714 -5.709291,-172.20425 0.403556,-143.26751 0.606037,-159.222344 2.078464,-163.776086 2.339562,-7.235508 7.075283,-13.868729 12.43693,-17.420136 9.746173,-6.455597 -5.592019,-6.034622 219.870835,-6.034622 143.63299,0 206.78649,0.325384 210.3221,1.083637 7.71329,1.654205 15.79677,8.107757 20.03369,15.994165 l 3.45028,6.422198 0.79045,31.000004 c 0.43474,17.05 0.67361,90.4 0.53082,163 l -0.25962,132 -2.4476,4.97392 c -3.12185,6.34409 -9.23439,12.45663 -15.57848,15.57848 l -4.97392,2.4476 -210.5,0.18318 c -176.573265,0.15367 -211.102366,-0.0387 -214.2374,-1.19329 z m 285.2374,-101.48989 0,-40 -36,0 -36,0 0,40 0,40 36,0 36,0 0,-40 z m 92,0 0,-40 -34,0 -34,0 0,40 0,40 34,0 34,0 0,-40 z"
         id="path3010"
         inkscape:connector-curvature="0" />
      <path
         style="fill:#979898"
         d="m 43.642859,438.05144 c -7.363475,-3.53519 -12.585343,-8.84352 -15.951233,-16.21535 l -2.555758,-5.59751 0.253496,-139.90249 0.253495,-139.90249 233.500001,0 233.5,0 0.2535,139.90249 0.25349,139.90249 -2.55576,5.59751 c -3.36589,7.37183 -8.58776,12.68016 -15.95123,16.21535 l -6,2.88058 -209.5,0 -209.500001,0 -6,-2.88058 z m 288.500001,-99.11784 0,-41 -37,0 -37,0 0,41 0,41 37,0 37,0 0,-41 z m 92,0 0,-41 -35,0 -35,0 0,41 0,41 35,0 35,0 0,-41 z m -0.5,-102 0,-42.5 -82.5,0 -82.5,0 -0.2613,41.49937 c -0.14371,22.82465 -0.0443,42.06477 0.22085,42.75581 0.38274,0.9974 17.44644,1.20371 82.7613,1.00064 l 82.27915,-0.25582 0,-42.5 z M 57.73657,122.94362 c -1.598459,-0.50636 -4.419654,-2.38746 -6.269321,-4.18023 -11.749814,-11.38837 -1.394398,-31.044804 14.904361,-28.291147 8.3893,1.417363 14.859357,10.847697 13.26679,19.336817 -1.81535,9.67665 -12.531203,16.10295 -21.90183,13.13456 z m 94.82769,-0.90635 c -7.1686,-3.25582 -11.38149,-11.17243 -9.96463,-18.72495 0.97128,-5.177372 7.74458,-11.950669 12.92195,-12.92195 15.71208,-2.947603 26.57141,15.8445 15.94987,27.60128 -5.3258,5.89503 -11.78984,7.27816 -18.90719,4.04562 z m -47.45504,0.076 c -5.859263,-2.59684 -9.957262,-8.78482 -9.962623,-15.04356 -0.0105,-12.256438 13.273073,-20.08874 23.860113,-14.068471 5.2033,2.958833 7.43396,6.478382 7.93496,12.519821 0.54486,6.57025 -2.33955,12.22407 -7.80285,15.29461 -3.72441,2.09324 -10.76512,2.74444 -14.0296,1.2976 z"
         id="path3008"
         inkscape:connector-curvature="0" />
      <path
         style="fill:#df8e34"
         d="M 49.877326,439.85146 C 40.77918,437.69368 32.03839,430.27206 27.803749,421.10927 l -2.16089,-4.67567 0,-139.5 0,-139.5 233.500001,0 233.5,0 0,139.5 0,139.5 -2.77047,5.64151 c -3.23237,6.58209 -9.93149,13.13703 -16.55386,16.1976 l -4.67567,2.16089 -207.5,0.15546 c -118.90585,0.0891 -209.107732,-0.22584 -211.265534,-0.7376 z M 332.64286,338.9336 l 0,-41.5 -37.5,0 -37.5,0 -0.26156,40.49869 c -0.14386,22.27427 -0.0434,41.06726 0.2233,41.76219 0.38116,0.99331 8.45669,1.20744 37.76156,1.00132 l 37.2767,-0.2622 0,-41.5 z m 92,0 0,-41.5 -35.5,0 -35.5,0 -0.26156,40.49869 c -0.14386,22.27427 -0.0433,41.06754 0.22354,41.76282 0.38095,0.99274 8.05863,1.20771 35.76156,1.00131 l 35.27646,-0.26282 0,-41.5 z m -185,-52 0,-92.5 -72.5,0 -72.500001,0 -0.257983,91.5 c -0.14189,50.325 -0.04238,92.06546 0.221142,92.75658 0.379787,0.99606 15.464772,1.20339 72.757982,1 l 72.27886,-0.25658 0,-92.5 z m 185,-50 0,-43.5 -83.5,0 -83.5,0 -0.26105,42.5 c -0.14358,23.375 -0.0442,43.06509 0.22082,43.75575 0.38243,0.9966 17.66805,1.20297 83.76105,1 l 83.27918,-0.25575 0,-43.5 z M 56.104749,120.6836 c -4.803039,-2.42203 -8.96189,-8.80285 -8.96189,-13.75 0,-4.94715 4.158851,-11.327973 8.96189,-13.750004 2.454039,-1.2375 5.621189,-2.25 7.03811,-2.25 4.947149,0 11.327969,4.158851 13.75,8.96189 1.2375,2.454044 2.25,5.621194 2.25,7.038114 0,1.41692 -1.0125,4.58407 -2.25,7.03811 -2.422031,4.80304 -8.802851,8.96189 -13.75,8.96189 -1.416921,0 -4.584071,-1.0125 -7.03811,-2.25 z m 48.217741,0.62491 c -10.72491,-5.46807 -12.064989,-19.78415 -2.53252,-27.054917 9.55504,-7.287984 23.72735,-1.049354 25.09054,11.044817 1.34429,11.92645 -11.99656,21.39485 -22.55802,16.0101 z m 47.78226,-0.62491 c -4.80304,-2.42203 -8.96189,-8.80285 -8.96189,-13.75 0,-4.94715 4.15885,-11.327973 8.96189,-13.750004 2.45404,-1.2375 5.62119,-2.25 7.03811,-2.25 4.94715,0 11.32797,4.158851 13.75,8.96189 1.2375,2.454044 2.25,5.621194 2.25,7.038114 0,1.41692 -1.0125,4.58407 -2.25,7.03811 -2.42203,4.80304 -8.80285,8.96189 -13.75,8.96189 -1.41692,0 -4.58407,-1.0125 -7.03811,-2.25 z"
         id="path3006"
         inkscape:connector-curvature="0" />
      <path
         style="fill:#6d7b85"
         d="M 49.877326,439.85146 C 40.77918,437.69368 32.03839,430.27206 27.803749,421.10927 l -2.16089,-4.67567 0,-139.5 0,-139.5 233.500001,0 233.5,0 0,139.5 0,139.5 -2.77047,5.64151 c -3.23237,6.58209 -9.93149,13.13703 -16.55386,16.1976 l -4.67567,2.16089 -207.5,0.15546 c -118.90585,0.0891 -209.107732,-0.22584 -211.265534,-0.7376 z M 332.64286,338.9336 l 0,-41.5 -37.5,0 -37.5,0 -0.26156,40.49869 c -0.14386,22.27427 -0.0434,41.06726 0.2233,41.76219 0.38116,0.99331 8.45669,1.20744 37.76156,1.00132 l 37.2767,-0.2622 0,-41.5 z m 92,0 0,-41.5 -35.5,0 -35.5,0 -0.26156,40.49869 c -0.14386,22.27427 -0.0433,41.06754 0.22354,41.76282 0.38095,0.99274 8.05863,1.20771 35.76156,1.00131 l 35.27646,-0.26282 0,-41.5 z m -185,-52 0,-92.5 -72.5,0 -72.500001,0 -0.257983,91.5 c -0.14189,50.325 -0.04238,92.06546 0.221142,92.75658 0.379787,0.99606 15.464772,1.20339 72.757982,1 l 72.27886,-0.25658 0,-92.5 z m 185,-50 0,-43.5 -83.5,0 -83.5,0 -0.26105,42.5 c -0.14358,23.375 -0.0442,43.06509 0.22082,43.75575 0.38243,0.9966 17.66805,1.20297 83.76105,1 l 83.27918,-0.25575 0,-43.5 z m -272.53811,-116.25 c -4.80304,-2.42203 -8.96189,-8.80285 -8.96189,-13.75 0,-4.94715 4.15885,-11.327973 8.96189,-13.750004 2.45404,-1.2375 5.62119,-2.25 7.03811,-2.25 4.94715,0 11.32797,4.158851 13.75,8.96189 1.2375,2.454044 2.25,5.621194 2.25,7.038114 0,1.41692 -1.0125,4.58407 -2.25,7.03811 -2.42203,4.80304 -8.80285,8.96189 -13.75,8.96189 -1.41692,0 -4.58407,-1.0125 -7.03811,-2.25 z M 55.383719,119.939 c -13.007826,-7.93097 -7.446616,-27.997928 7.75914,-27.997928 8.532164,0 14.992524,6.46036 14.992524,14.992528 0,8.53216 -6.46036,14.99252 -14.992524,14.99252 -2.730192,0 -5.78179,-0.78151 -7.75914,-1.98712 z"
         id="path3004"
         inkscape:connector-curvature="0" />
      <path
         style="fill:#14a38b"
         d="M 47.347817,438.04426 C 37.476122,434.62541 29.319632,425.64794 27.229213,415.90065 26.477464,412.39537 26.142859,368.80731 26.142859,274.38438 l 0,-136.45078 233.013721,0 233.01371,0 -0.26371,139.25 -0.26372,139.25 -2.77978,5.66054 c -3.20114,6.51856 -8.96308,12.13433 -15.59782,15.20213 l -4.6224,2.13733 -208,0.22224 C 61.196085,439.86895 52.42512,439.80268 47.347817,438.04426 z m 286.295043,-99.11066 0,-42.5 -38.5,0 -38.5,0 -0.2613,41.49937 c -0.14371,22.82465 -0.0433,42.06751 0.22319,42.7619 0.38092,0.99267 8.66626,1.20656 38.76129,1.00064 l 38.27682,-0.26191 0,-42.5 z m 92,0 0,-42.5 -36.5,0 -36.5,0 -0.2613,41.49937 c -0.14371,22.82465 -0.0432,42.06777 0.22341,42.7625 0.38072,0.99214 8.26758,1.20682 36.7613,1.00063 l 36.27659,-0.2625 0,-42.5 z m -184.5,-29.83876 c 0,-39.51132 0.29343,-81.26075 0.65206,-92.77651 0.59216,-19.01419 0.49373,-21.09608 -1.07142,-22.66124 -1.59935,-1.59934 -6.89962,-1.72349 -73.58064,-1.72349 -63.99134,0 -72.029159,0.17202 -73.428572,1.57143 -1.40481,1.40481 -1.570507,10.86803 -1.562737,89.25 0.0048,48.22321 0.292462,90.04107 0.639291,92.92857 l 0.630599,5.25 73.860709,0 73.86071,0 0,-71.83876 z m 183.8,-28.36124 c 1.86507,-1.86507 1.71187,-86.1303 -0.15942,-87.68333 -0.99081,-0.8223 -23.97073,-1.05887 -84.75,-0.87244 l -83.39058,0.25577 -0.26072,43.38462 c -0.18749,31.19847 0.0576,43.76813 0.87244,44.75 1.56686,1.88794 165.80373,2.04993 167.68828,0.16538 z M 154.4581,121.83172 c -4.38489,-1.26874 -9.05568,-6.22047 -10.32938,-10.95064 -4.06254,-15.087116 14.86752,-25.940262 25.93722,-14.870561 8.29743,8.297431 4.54697,22.754271 -6.71441,25.881911 -4.26162,1.18359 -4.60108,1.18127 -8.89343,-0.0607 z M 55.383719,119.939 c -13.007826,-7.93097 -7.446616,-27.997928 7.75914,-27.997928 8.532164,0 14.992524,6.46036 14.992524,14.992528 0,8.53216 -6.46036,14.99252 -14.992524,14.99252 -2.730192,0 -5.78179,-0.78151 -7.75914,-1.98712 z"
         id="path3002"
         inkscape:connector-curvature="0" />
      <path
         style="fill:#b9442b"
         d="M 47.347817,438.04426 C 37.476122,434.62541 29.319632,425.64794 27.229213,415.90065 26.477464,412.39537 26.142859,368.80731 26.142859,274.38438 l 0,-136.45078 233.013721,0 233.01371,0 -0.26371,139.25 -0.26372,139.25 -2.77978,5.66054 c -3.20114,6.51856 -8.96308,12.13433 -15.59782,15.20213 l -4.6224,2.13733 -208,0.22224 C 61.196085,439.86895 52.42512,439.80268 47.347817,438.04426 z m 286.295043,-99.11066 0,-42.5 -38.5,0 -38.5,0 -0.2613,41.49937 c -0.14371,22.82465 -0.0433,42.06751 0.22319,42.7619 0.38092,0.99267 8.66626,1.20656 38.76129,1.00064 l 38.27682,-0.26191 0,-42.5 z m 92,0 0,-42.5 -36.5,0 -36.5,0 -0.2613,41.49937 c -0.14371,22.82465 -0.0432,42.06777 0.22341,42.7625 0.38072,0.99214 8.26758,1.20682 36.7613,1.00063 l 36.27659,-0.2625 0,-42.5 z m -184.5,-29.83876 c 0,-39.51132 0.29343,-81.26075 0.65206,-92.77651 0.59216,-19.01419 0.49373,-21.09608 -1.07142,-22.66124 -1.59935,-1.59934 -6.89962,-1.72349 -73.58064,-1.72349 -63.99134,0 -72.029159,0.17202 -73.428572,1.57143 -1.40481,1.40481 -1.570507,10.86803 -1.562737,89.25 0.0048,48.22321 0.292462,90.04107 0.639291,92.92857 l 0.630599,5.25 73.860709,0 73.86071,0 0,-71.83876 z m 183.8,-28.36124 c 1.86507,-1.86507 1.71187,-86.1303 -0.15942,-87.68333 -0.99081,-0.8223 -23.97073,-1.05887 -84.75,-0.87244 l -83.39058,0.25577 -0.26072,43.38462 c -0.18749,31.19847 0.0576,43.76813 0.87244,44.75 1.56686,1.88794 165.80373,2.04993 167.68828,0.16538 z M 55.383719,119.939 c -13.007826,-7.93097 -7.446616,-27.997928 7.75914,-27.997928 8.532164,0 14.992524,6.46036 14.992524,14.992528 0,8.53216 -6.46036,14.99252 -14.992524,14.99252 -2.730192,0 -5.78179,-0.78151 -7.75914,-1.98712 z"
         id="path3000"
         inkscape:connector-curvature="0" />
      <path
         style="fill:#243846"
         d="M 47.347817,438.04426 C 37.476122,434.62541 29.319632,425.64794 27.229213,415.90065 26.477464,412.39537 26.142859,368.80731 26.142859,274.38438 l 0,-136.45078 233.013721,0 233.01371,0 -0.26371,139.25 -0.26372,139.25 -2.77978,5.66054 c -3.20114,6.51856 -8.96308,12.13433 -15.59782,15.20213 l -4.6224,2.13733 -208,0.22224 C 61.196085,439.86895 52.42512,439.80268 47.347817,438.04426 z m 286.295043,-99.11066 0,-42.5 -38.5,0 -38.5,0 -0.2613,41.49937 c -0.14371,22.82465 -0.0433,42.06751 0.22319,42.7619 0.38092,0.99267 8.66626,1.20656 38.76129,1.00064 l 38.27682,-0.26191 0,-42.5 z m 92,0 0,-42.5 -36.5,0 -36.5,0 -0.2613,41.49937 c -0.14371,22.82465 -0.0432,42.06777 0.22341,42.7625 0.38072,0.99214 8.26758,1.20682 36.7613,1.00063 l 36.27659,-0.2625 0,-42.5 z m -184.5,-29.83876 c 0,-39.51132 0.29343,-81.26075 0.65206,-92.77651 0.59216,-19.01419 0.49373,-21.09608 -1.07142,-22.66124 -1.59935,-1.59934 -6.89962,-1.72349 -73.58064,-1.72349 -63.99134,0 -72.029159,0.17202 -73.428572,1.57143 -1.40481,1.40481 -1.570507,10.86803 -1.562737,89.25 0.0048,48.22321 0.292462,90.04107 0.639291,92.92857 l 0.630599,5.25 73.860709,0 73.86071,0 0,-71.83876 z m 183.8,-28.36124 c 1.86507,-1.86507 1.71187,-86.1303 -0.15942,-87.68333 -0.99081,-0.8223 -23.97073,-1.05887 -84.75,-0.87244 l -83.39058,0.25577 -0.26072,43.38462 c -0.18749,31.19847 0.0576,43.76813 0.87244,44.75 1.56686,1.88794 165.80373,2.04993 167.68828,0.16538 z"
         id="path2998"
         inkscape:connector-curvature="0" />
    </g>
    <path
       style="fill:#ffffff;fill-opacity:1"
       d="m 355.17633,343.47218 0,-39.90103 33.84011,0 33.84011,0 0,39.90103 0,39.90102 -33.84011,0 -33.84011,0 0,-39.90102 z"
       id="path3012"
       inkscape:connector-curvature="0"
       transform="translate(0,540.99165)" />
    <path
       style="fill:#ffffff;fill-opacity:1"
       d="m 259.21183,343.47218 0,-39.90103 35.86042,0 35.86041,0 0,39.90103 0,39.90102 -35.86041,0 -35.86042,0 0,-39.90102 z"
       id="path3014"
       inkscape:connector-curvature="0"
       transform="translate(0,540.99165)" />
  </g>
</svg>
