<?xml version="1.0" ?><svg height="512" id="Layer_1" version="1.1" viewBox="0 0 512 512" width="512" xml:space="preserve" xmlns="http://www.w3.org/2000/svg" xmlns:cc="http://creativecommons.org/ns#" xmlns:dc="http://purl.org/dc/elements/1.1/" xmlns:inkscape="http://www.inkscape.org/namespaces/inkscape" xmlns:rdf="http://www.w3.org/1999/02/22-rdf-syntax-ns#" xmlns:sodipodi="http://sodipodi.sourceforge.net/DTD/sodipodi-0.dtd" xmlns:svg="http://www.w3.org/2000/svg"><defs id="defs12"/><g id="g6421"><rect height="512" id="rect2987" style="fill:#ff6c00;fill-opacity:1;fill-rule:nonzero;stroke:none" width="512" x="0" y="5.6843419e-014"/><g id="g9958" transform="translate(-53.368924,-22.822552)"><path d="m 472.37842,216.5026 c -5.8266,21.66223 -28.7823,32.4889 -28.7823,32.4889 -52.3066,-132.92004 -120.7111,-170.168949 -120.7111,-170.168949 -2.9066,42.640019 -54.48,76.257809 -54.48,76.257809 l -35.7822,-18.83556 c 5.7778,30.25779 -12.7156,58.52002 -12.7156,58.52002 -74.1111,48.40445 -45.5912,147.96894 -45.5912,147.96894 l -31.6133,-14.36445 c 23.5244,170.36006 167.3156,149.66227 167.3156,149.66227 204.8712,-1.44444 162.3601,-261.52898 162.3601,-261.52898 z m -167.8534,229.43119 c -122.9333,-0.86666 -97.4223,-156.92005 -97.4223,-156.92005 3.4845,13.00001 17.2578,19.49333 17.2578,19.49333 31.3911,-79.75113 72.4311,-102.09336 72.4311,-102.09336 1.7556,25.56445 32.6978,45.76001 32.6978,45.76001 l 21.4622,-11.31111 c -3.4711,18.16001 7.6312,35.10668 7.6312,35.10668 44.4578,29.03556 27.3556,88.78225 27.3556,88.78225 l 18.9645,-8.61333 c -14.1113,102.20892 -100.3779,89.79558 -100.3779,89.79558 z" id="Ember" style="fill:#ffffff;fill-opacity:1;fill-rule:evenodd"/><path d="m 359.05084,366.64407 c 0,30.55352 -24.52569,55.32204 -54.77966,55.32204 -30.25397,0 -54.77966,-24.76852 -54.77966,-55.32204 0,-30.55351 24.52569,-55.32203 54.77966,-55.32203 30.25397,0 54.77966,24.76852 54.77966,55.32203 z" id="path9956" style="fill:#ffffff;fill-opacity:1;fill-rule:nonzero;stroke:none" transform="translate(-6.5084746,10.847458)"/></g></g></svg>