<?xml version="1.0" encoding="UTF-8" standalone="no"?>
<!-- Created with Inkscape (http://www.inkscape.org/) -->

<svg
   xmlns:dc="http://purl.org/dc/elements/1.1/"
   xmlns:cc="http://creativecommons.org/ns#"
   xmlns:rdf="http://www.w3.org/1999/02/22-rdf-syntax-ns#"
   xmlns:svg="http://www.w3.org/2000/svg"
   xmlns="http://www.w3.org/2000/svg"
   xmlns:sodipodi="http://sodipodi.sourceforge.net/DTD/sodipodi-0.dtd"
   xmlns:inkscape="http://www.inkscape.org/namespaces/inkscape"
   width="600"
   height="200"
   id="svg2"
   version="1.1"
   inkscape:version="0.48.5 r10040"
   sodipodi:docname="errorlog.svg">
  <defs
     id="defs4">
    <filter
       style="color-interpolation-filters:sRGB;"
       inkscape:label="Drop Shadow"
       id="filter3009">
      <feFlood
         flood-opacity="0.5"
         flood-color="rgb(0,0,0)"
         result="flood"
         id="feFlood3011" />
      <feComposite
         in="flood"
         in2="SourceGraphic"
         operator="in"
         result="composite1"
         id="feComposite3013" />
      <feGaussianBlur
         in="composite"
         stdDeviation="2"
         result="blur"
         id="feGaussianBlur3015" />
      <feOffset
         dx="0"
         dy="4"
         result="offset"
         id="feOffset3017" />
      <feComposite
         in="SourceGraphic"
         in2="offset"
         operator="over"
         result="fbSourceGraphic"
         id="feComposite3019" />
      <feColorMatrix
         result="fbSourceGraphicAlpha"
         in="fbSourceGraphic"
         values="0 0 0 -1 0 0 0 0 -1 0 0 0 0 -1 0 0 0 0 1 0"
         id="feColorMatrix3021" />
      <feFlood
         id="feFlood3023"
         flood-opacity="0.5"
         flood-color="rgb(0,0,0)"
         result="flood"
         in="fbSourceGraphic" />
      <feComposite
         id="feComposite3025"
         in2="fbSourceGraphic"
         in="flood"
         operator="in"
         result="composite1" />
      <feGaussianBlur
         id="feGaussianBlur3027"
         in="composite"
         stdDeviation="5"
         result="blur" />
      <feOffset
         id="feOffset3029"
         dx="0"
         dy="0"
         result="offset" />
      <feComposite
         id="feComposite3031"
         in2="offset"
         in="fbSourceGraphic"
         operator="over"
         result="composite2" />
    </filter>
  </defs>
  <sodipodi:namedview
     id="base"
     pagecolor="#ffffff"
     bordercolor="#666666"
     borderopacity="1.0"
     inkscape:pageopacity="0.0"
     inkscape:pageshadow="2"
     inkscape:zoom="3.959798"
     inkscape:cx="487.66401"
     inkscape:cy="95.904456"
     inkscape:document-units="px"
     inkscape:current-layer="layer1"
     showgrid="false"
     width="600px"
     inkscape:window-width="1366"
     inkscape:window-height="702"
     inkscape:window-x="0"
     inkscape:window-y="27"
     inkscape:window-maximized="1" />
  <metadata
     id="metadata7">
    <rdf:RDF>
      <cc:Work
         rdf:about="">
        <dc:format>image/svg+xml</dc:format>
        <dc:type
           rdf:resource="http://purl.org/dc/dcmitype/StillImage" />
        <dc:title></dc:title>
      </cc:Work>
    </rdf:RDF>
  </metadata>
  <g
     inkscape:label="Capa 1"
     inkscape:groupmode="layer"
     id="layer1"
     transform="translate(0,-852.36218)">
    <g
       transform="translate(21.428572,874.50504)"
       style="font-size:80px;font-style:normal;font-weight:normal;line-height:125%;letter-spacing:0px;word-spacing:0px;fill:#000000;fill-opacity:1;stroke:none;font-family:Sans"
       id="flowRoot2985">
      <path
         d="m 21.203125,49.26337 49.335937,0 0,6.640625 -20.703125,0 0,51.679685 -7.929687,0 0,-51.679685 -20.703125,0 0,-6.640625"
         style=""
         id="path3076" />
      <path
         d="m 114.25,81.177433 0,26.406247 -7.1875,0 0,-26.171872 c -4e-5,-4.140595 -0.80733,-7.23955 -2.42187,-9.296875 -1.61462,-2.057254 -4.03649,-3.085899 -7.26563,-3.085938 -3.880231,3.9e-5 -6.940124,1.237017 -9.179688,3.710938 -2.239598,2.473991 -3.359389,5.846383 -3.359375,10.117187 l 0,24.72656 -7.226562,0 0,-60.781247 7.226562,0 0,23.828125 c 1.718734,-2.630169 3.736961,-4.596313 6.054688,-5.898438 2.343727,-1.302039 5.039037,-1.95308 8.085937,-1.953125 5.026008,4.5e-5 8.828088,1.562544 11.406248,4.6875 2.57808,3.098996 3.86715,7.669304 3.86719,13.710938"
         style=""
         id="path3078" />
      <path
         d="m 166.08594,83.911808 0,3.515625 -33.04688,0 c 0.31249,4.947932 1.79686,8.72397 4.45313,11.328125 2.68227,2.578132 6.40622,3.867192 11.17187,3.867192 2.76039,0 5.42966,-0.33854 8.00781,-1.01563 2.60413,-0.67708 5.18226,-1.6927 7.73438,-3.046875 l 0,6.796875 c -2.57817,1.09375 -5.22139,1.92708 -7.92969,2.5 -2.70836,0.57292 -5.45576,0.85937 -8.24219,0.85938 -6.97918,-1e-5 -12.51303,-2.03125 -16.60156,-6.09375 -4.0625,-4.062496 -6.09375,-9.557282 -6.09375,-16.48438 0,-7.161429 1.92708,-12.838507 5.78125,-17.03125 3.8802,-4.218707 9.10155,-6.32808 15.66406,-6.328125 5.88539,4.5e-5 10.53382,1.901085 13.94532,5.703125 3.43745,3.776077 5.1562,8.919301 5.15625,15.429688 m -7.1875,-2.109375 c -0.0521,-3.932262 -1.15889,-7.07028 -3.32032,-9.414063 -2.13544,-2.343712 -4.97398,-3.515586 -8.51562,-3.515625 -4.01044,3.9e-5 -7.22658,1.13285 -9.64844,3.398438 -2.39584,2.265658 -3.77605,5.455759 -4.14062,9.570312 l 25.625,-0.03906"
         style=""
         id="path3080" />
      <path
         d="m 221.86719,53.755558 0,8.320312 c -2.6563,-2.47391 -5.49484,-4.322866 -8.51563,-5.546875 -2.99483,-1.223906 -6.18493,-1.835884 -9.57031,-1.835937 -6.66669,5.3e-5 -11.77086,2.044322 -15.3125,6.132812 -3.54168,4.062543 -5.31251,9.947954 -5.3125,17.65625 -1e-5,7.682313 1.77082,13.567724 5.3125,17.65625 3.54164,4.06251 8.64581,6.09376 15.3125,6.09375 3.38538,1e-5 6.57548,-0.61197 9.57031,-1.83594 3.02079,-1.223947 5.85933,-3.072904 8.51563,-5.546872 l 0,8.242192 c -2.76047,1.875 -5.69015,3.28125 -8.78907,4.21875 -3.07295,0.93749 -6.32816,1.40624 -9.76562,1.40625 -8.82815,-1e-5 -15.78127,-2.69532 -20.85938,-8.08594 -5.07813,-5.416656 -7.61719,-12.799462 -7.61718,-22.14844 -1e-5,-9.374961 2.53905,-16.757766 7.61718,-22.148437 5.07811,-5.41661 12.03123,-8.124941 20.85938,-8.125 3.48955,5.9e-5 6.77079,0.468809 9.84375,1.40625 3.09891,0.911515 6.00256,2.291722 8.71094,4.140625"
         style=""
         id="path3082" />
      <path
         d="m 250.77344,68.872745 c -3.85419,3.9e-5 -6.90106,1.510454 -9.14063,4.53125 -2.23959,2.994823 -3.35938,7.109402 -3.35937,12.34375 -1e-5,5.234392 1.10676,9.361992 3.32031,12.382813 2.23957,2.994802 5.29946,4.492192 9.17969,4.492192 3.82809,0 6.86195,-1.51041 9.10156,-4.531255 2.23955,-3.02082 3.35934,-7.1354 3.35937,-12.34375 -3e-5,-5.182264 -1.11982,-9.283823 -3.35937,-12.304687 -2.23961,-3.046838 -5.27347,-4.570274 -9.10156,-4.570313 m 0,-6.09375 c 6.24997,4.5e-5 11.15882,2.031293 14.72656,6.09375 3.56767,4.062535 5.35152,9.687529 5.35156,16.875 -4e-5,7.161473 -1.78389,12.786468 -5.35156,16.875005 -3.56774,4.0625 -8.47659,6.09374 -14.72656,6.09375 -6.27606,-1e-5 -11.19793,-2.03125 -14.76563,-6.09375 -3.54167,-4.088537 -5.3125,-9.713532 -5.3125,-16.875005 0,-7.187471 1.77083,-12.812465 5.3125,-16.875 3.5677,-4.062457 8.48957,-6.093705 14.76563,-6.09375"
         style=""
         id="path3084" />
      <path
         d="m 308.07812,70.552433 c -0.80732,-0.468713 -1.69273,-0.807254 -2.65625,-1.015625 -0.93752,-0.234337 -1.97919,-0.351524 -3.125,-0.351563 -4.06252,3.9e-5 -7.18751,1.328162 -9.375,3.984375 -2.16147,2.630241 -3.2422,6.419299 -3.24218,11.367188 l 0,23.046872 -7.22657,0 0,-43.749997 7.22657,0 0,6.796875 c 1.5104,-2.656211 3.47654,-4.622354 5.89843,-5.898438 2.42186,-1.302039 5.36456,-1.95308 8.82813,-1.953125 0.49476,4.5e-5 1.04164,0.03911 1.64062,0.117188 0.59893,0.05213 1.26299,0.143274 1.99219,0.273437 l 0.0391,7.382813"
         style=""
         id="path3086" />
      <path
         d="m 351.39844,83.911808 0,3.515625 -33.04688,0 c 0.31249,4.947932 1.79686,8.72397 4.45313,11.328125 2.68227,2.578132 6.40622,3.867192 11.17187,3.867192 2.76039,0 5.42966,-0.33854 8.00781,-1.01563 2.60413,-0.67708 5.18226,-1.6927 7.73438,-3.046875 l 0,6.796875 c -2.57817,1.09375 -5.22139,1.92708 -7.92969,2.5 -2.70836,0.57292 -5.45576,0.85937 -8.24219,0.85938 -6.97918,-1e-5 -12.51303,-2.03125 -16.60156,-6.09375 -4.0625,-4.062496 -6.09375,-9.557282 -6.09375,-16.48438 0,-7.161429 1.92708,-12.838507 5.78125,-17.03125 3.8802,-4.218707 9.10155,-6.32808 15.66406,-6.328125 5.88539,4.5e-5 10.53382,1.901085 13.94532,5.703125 3.43745,3.776077 5.1562,8.919301 5.15625,15.429688 m -7.1875,-2.109375 c -0.0521,-3.932262 -1.15889,-7.07028 -3.32032,-9.414063 -2.13544,-2.343712 -4.97398,-3.515586 -8.51562,-3.515625 -4.01044,3.9e-5 -7.22658,1.13285 -9.64844,3.398438 -2.39584,2.265658 -3.77605,5.455759 -4.14062,9.570312 l 25.625,-0.03906"
         style=""
         id="path3088" />
    </g>
    <path
       transform="translate(-22.857143,832.36218)"
       style="fill:#ececec;filter:url(#filter3009)"
       d="m 561.42857,119.64286 c 0,29.78393 -24.14464,53.92857 -53.92857,53.92857 -29.78393,0 -53.92857,-24.14464 -53.92857,-53.92857 0,-29.783926 24.14464,-53.928569 53.92857,-53.928569 29.78393,0 53.92857,24.144643 53.92857,53.928569 z"
       id="path2995" />
    <path
       sodipodi:type="arc"
       style="fill:#aa0000"
       id="path3045"
       sodipodi:cx="504.28571"
       sodipodi:cy="117.85714"
       sodipodi:rx="40"
       sodipodi:ry="40"
       d="m 544.28571,117.85714 a 40,40 0 1 1 -80,0 40,40 0 1 1 80,0 z"
       transform="translate(-19.285714,835.93361)" />
  </g>
</svg>
